# xmcd CD database file
#
# Track frame offsets:
#	150
#	17086
#	33647
#	52128
#	69365
#	88442
#	103562
#	129322
#	158633
#
# Disc length: 2394 seconds
#
# Revision: 0
# Processed by: cddbd v1.4PL0 Copyright (c) Steve Scherf et al.
# Submitted via: CDex 1.40Beta8
#
DISCID=75095809
DTITLE=Blue By Nature - Live At The lake
DYEAR=1900
DGENRE=Blues
TTITLE0=I Had It All Wrong
TTITLE1=Watcha Want
TTITLE2=Another Day, Another Mile
TTITLE3=I Got A Worry
TTITLE4=I'll Get Along Alright
TTITLE5=You Got A Way
TTITLE6=Fun And Games
TTITLE7=You Got Me Workin'
TTITLE8=Data Track
EXTD=ID3G: 0
EXTT0=
EXTT1=
EXTT2=
EXTT3=
EXTT4=
EXTT5=
EXTT6=
EXTT7=
EXTT8=
PLAYORDER=
